<svg id="Layer_1" data-name="Layer 1" xmlns="http://www.w3.org/2000/svg" viewBox="0 0 226.42 237.83"><defs><style>.cls-1{fill:#ff7c09;}</style></defs><title>LOGO ORANGE</title><g id="Layer_1-2" data-name="Layer 1-2"><polygon class="cls-1" points="73.11 142.53 121.05 142.53 121.05 72.87 120.6 72.87 73.11 142.53"/><path class="cls-1" d="M967.37,0h-141a42.84,42.84,0,0,0-42.71,42.71V195.12a42.84,42.84,0,0,0,42.71,42.71h141a42.84,42.84,0,0,0,42.71-42.71V42.71A42.84,42.84,0,0,0,967.37,0ZM949.49,162.88H929.14v37.54H904.71V162.88H836.87V137.33l67.84-95.21h24.43V142.53H949.5ZM978.22,46.77a13.94,13.94,0,1,1,13.94-13.94,13.94,13.94,0,0,1-13.94,13.94Z" transform="translate(-783.66)"/></g></svg>